<svg width="800" height="1000" viewBox="0 0 800 1000" fill="none" xmlns="http://www.w3.org/2000/svg">
  <rect width="800" height="1000" fill="#E8EFE4"/>
  <rect x="42" y="42" width="716" height="916" rx="40" fill="url(#paint0_linear_1_2)"/>
  <circle cx="403" cy="282" r="122" fill="#F3D2B3"/>
  <path d="M290 250C290 178.203 348.203 120 420 120V120C491.797 120 550 178.203 550 250V318H290V250Z" fill="#35543E"/>
  <path d="M262 694C262 574.707 358.707 478 478 478H522C641.293 478 738 574.707 738 694V956H262V694Z" fill="#FFFFFF"/>
  <path d="M117 709C117 571.54 228.54 460 366 460H434C571.46 460 683 571.54 683 709V956H117V709Z" fill="#F9FBF7"/>
  <path d="M237 604C237 530.577 296.577 471 370 471H436C509.423 471 569 530.577 569 604V956H237V604Z" fill="#FFFFFF"/>
  <rect x="222" y="566" width="79" height="255" rx="26" transform="rotate(-10 222 566)" fill="#FFFFFF"/>
  <rect x="503" y="552" width="79" height="255" rx="26" transform="rotate(11 503 552)" fill="#FFFFFF"/>
  <path d="M346 415H456V505C456 535.376 431.376 560 401 560V560C370.624 560 346 535.376 346 505V415Z" fill="#F0C7A6"/>
  <path d="M324 305C324 241.487 375.487 190 439 190V190C502.513 190 554 241.487 554 305V344C554 429.052 485.052 498 400 498V498C314.948 498 246 429.052 246 344V333C246 271.696 295.696 222 357 222H364C386.091 222 404 239.909 404 262V280C404 302.091 421.909 320 444 320H515" fill="#F3D2B3"/>
  <path d="M324 305C324 241.487 375.487 190 439 190V190C502.513 190 554 241.487 554 305V344C554 429.052 485.052 498 400 498V498C314.948 498 246 429.052 246 344V333C246 271.696 295.696 222 357 222H364C386.091 222 404 239.909 404 262V280C404 302.091 421.909 320 444 320H515" stroke="#DBB18C" stroke-width="8" stroke-linecap="round"/>
  <path d="M310 604L402 730L494 604" stroke="#DCE6D8" stroke-width="18" stroke-linecap="round"/>
  <rect x="349" y="650" width="105" height="197" rx="28" fill="#DBE7D7"/>
  <path d="M387 348C405.778 363.111 428.222 363.111 447 348" stroke="#9D6042" stroke-width="8" stroke-linecap="round"/>
  <circle cx="348" cy="317" r="12" fill="#35543E"/>
  <circle cx="453" cy="317" r="12" fill="#35543E"/>
  <path d="M338 273C355.5 263 373 263 391 273" stroke="#35543E" stroke-width="8" stroke-linecap="round"/>
  <path d="M425 273C442.5 263 460 263 478 273" stroke="#35543E" stroke-width="8" stroke-linecap="round"/>
  <path d="M594 214C583 178.5 546.4 145.2 496 135.5C560.5 120.5 614.333 145.667 633 161L651 237C627.4 267.4 603.833 245.333 595 228L594 214Z" fill="#35543E"/>
  <circle cx="164" cy="190" r="54" fill="#DDA66D" fill-opacity="0.55"/>
  <circle cx="696" cy="266" r="74" fill="#A8C08D" fill-opacity="0.55"/>
  <circle cx="120" cy="816" r="82" fill="#C7D8B9" fill-opacity="0.55"/>
  <path d="M120 876C178.542 876 226 828.542 226 770C226 711.458 178.542 664 120 664C61.4583 664 14 711.458 14 770C14 828.542 61.4583 876 120 876Z" stroke="#A8C08D" stroke-opacity="0.3" stroke-width="14"/>
  <defs>
    <linearGradient id="paint0_linear_1_2" x1="400" y1="42" x2="400" y2="958" gradientUnits="userSpaceOnUse">
      <stop stop-color="#EFF5EA"/>
      <stop offset="1" stop-color="#E0EBDD"/>
    </linearGradient>
  </defs>
</svg>
